<svg width="43" height="42" viewBox="0 0 43 42" fill="none" xmlns="http://www.w3.org/2000/svg">
<path d="M4.85639 21.6528C4.84372 31.2361 12.6112 39.0241 22.1945 39.0368C31.7778 39.0495 39.5659 31.282 39.5786 21.6987C39.5912 12.1154 31.8238 4.3273 22.2404 4.31462C12.6571 4.30195 4.86906 12.0694 4.85639 21.6528ZM36.1064 21.6941C36.0962 29.3503 29.8554 35.5747 22.1991 35.5646C14.5429 35.5545 8.31848 29.3136 8.32861 21.6574C8.33873 14.0011 14.5796 7.77672 22.2359 7.78684C29.8921 7.79697 36.1165 14.0378 36.1064 21.6941Z" fill="#2C86FF"/>
<mask id="mask0_96_820" style="mask-type:alpha" maskUnits="userSpaceOnUse" x="14" y="24" width="17" height="7">
<path d="M25.8314 24.3041L28.6169 25.8665L30.2884 27.6508L27.5027 30.026L17.4745 30.026L14.689 27.6508L16.2586 25.8665L19.0442 24.304L25.8314 24.3041Z" fill="white"/>
</mask>
<g mask="url(#mask0_96_820)">
<path d="M22.5648 26.0883C27.0334 26.0883 30.474 29.4507 30.474 33.3803C30.4738 37.3098 27.0333 40.6713 22.5648 40.6713C18.0965 40.6711 14.6568 37.3097 14.6566 33.3803C14.6566 29.4508 18.0964 26.0885 22.5648 26.0883Z" fill="white" stroke="#2C86FF" stroke-width="3.125"/>
</g>
<circle cx="28.7917" cy="16.7916" r="2.08333" fill="#2C86FF"/>
<circle cx="16.2917" cy="16.7916" r="2.08333" fill="#2C86FF"/>
</svg>
