<svg width="42" height="43" viewBox="0 0 42 43" fill="none" xmlns="http://www.w3.org/2000/svg">
<path d="M4.18964 22.4028C4.17697 31.9861 11.9445 39.7741 21.5278 39.7868C31.1111 39.7995 38.8992 32.032 38.9118 22.4487C38.9245 12.8654 31.157 5.0773 21.5737 5.06462C11.9904 5.05195 4.20231 12.8194 4.18964 22.4028ZM35.4396 22.4441C35.4295 30.1003 29.1886 36.3247 21.5324 36.3146C13.8761 36.3045 7.65174 30.0636 7.66186 22.4074C7.67198 14.7511 13.9129 8.52672 21.5691 8.53684C29.2253 8.54697 35.4497 14.7878 35.4396 22.4441Z" fill="#2C86FF"/>
<mask id="mask0_96_834" style="mask-type:alpha" maskUnits="userSpaceOnUse" x="13" y="25" width="17" height="7">
<path d="M18.4427 31.483L15.5932 29.882L13.8948 28.0747L16.7974 25.7384L27.1314 25.8775L29.97 28.2911L28.3285 30.0534L25.4369 31.5772L18.4427 31.483Z" fill="white"/>
</mask>
<g mask="url(#mask0_96_834)">
<path d="M21.8326 29.7442C17.1584 29.6813 13.6809 26.2294 13.7332 22.3425C13.7857 18.4558 17.3548 15.0996 22.0289 15.1625C26.7029 15.2255 30.1803 18.6765 30.1282 22.5632C30.0759 26.4501 26.5067 29.8071 21.8326 29.7442Z" fill="white" stroke="#2C86FF" stroke-width="3.125"/>
</g>
<circle cx="28.125" cy="17.5416" r="2.08333" fill="#2C86FF"/>
<circle cx="15.625" cy="17.5416" r="2.08333" fill="#2C86FF"/>
</svg>
