<svg width="85" height="43" viewBox="0 0 85 43" fill="none" xmlns="http://www.w3.org/2000/svg">
<path d="M7.77776 10.8333H4.30554V35.1389C4.30554 37.0486 5.86804 38.6111 7.77776 38.6111H32.0833V35.1389H7.77776V10.8333ZM35.5555 3.88887H14.7222C12.8125 3.88887 11.25 5.45137 11.25 7.36109V28.1944C11.25 30.1041 12.8125 31.6666 14.7222 31.6666H35.5555C37.4653 31.6666 39.0278 30.1041 39.0278 28.1944V7.36109C39.0278 5.45137 37.4653 3.88887 35.5555 3.88887ZM35.5555 28.1944H14.7222V7.36109H35.5555V28.1944ZM18.1944 16.0416H32.0833V19.5139H18.1944V16.0416ZM18.1944 21.25H25.1389V24.7222H18.1944V21.25ZM18.1944 10.8333H32.0833V14.3055H18.1944V10.8333Z" fill="#2C86FF"/>
<g opacity="0.7">
<path d="M46.6667 6.66665H44.5834V21.25C44.5834 22.3958 45.5209 23.3333 46.6667 23.3333H61.25V21.25H46.6667V6.66665ZM63.3334 2.49998H50.8334C49.6875 2.49998 48.75 3.43748 48.75 4.58332V17.0833C48.75 18.2292 49.6875 19.1667 50.8334 19.1667H63.3334C64.4792 19.1667 65.4167 18.2292 65.4167 17.0833V4.58332C65.4167 3.43748 64.4792 2.49998 63.3334 2.49998ZM63.3334 17.0833H50.8334V4.58332H63.3334V17.0833ZM52.9167 9.79165H61.25V11.875H52.9167V9.79165ZM52.9167 12.9167H57.0834V15H52.9167V12.9167ZM52.9167 6.66665H61.25V8.74999H52.9167V6.66665Z" fill="#2C86FF"/>
</g>
<g opacity="0.5">
<path d="M71.1458 6.40624H69.8438V15.5208C69.8438 16.237 70.4297 16.8229 71.1458 16.8229H80.2604V15.5208H71.1458V6.40624ZM81.5625 3.80208H73.75C73.0339 3.80208 72.4479 4.38802 72.4479 5.10416V12.9167C72.4479 13.6328 73.0339 14.2187 73.75 14.2187H81.5625C82.2786 14.2187 82.8646 13.6328 82.8646 12.9167V5.10416C82.8646 4.38802 82.2786 3.80208 81.5625 3.80208ZM81.5625 12.9167H73.75V5.10416H81.5625V12.9167ZM75.0521 8.35937H80.2604V9.66145H75.0521V8.35937ZM75.0521 10.3125H77.6562V11.6146H75.0521V10.3125ZM75.0521 6.40624H80.2604V7.70833H75.0521V6.40624Z" fill="#2C86FF"/>
</g>
</svg>
